<?xml version="1.0" encoding="utf-8"?>
<!-- Generator: Adobe Illustrator 26.0.3, SVG Export Plug-In . SVG Version: 6.00 Build 0)  -->
<!DOCTYPE svg PUBLIC "-//W3C//DTD SVG 1.1//EN" "http://www.w3.org/Graphics/SVG/1.1/DTD/svg11.dtd" [
	<!ENTITY ns_extend "http://ns.adobe.com/Extensibility/1.0/">
	<!ENTITY ns_ai "http://ns.adobe.com/AdobeIllustrator/10.0/">
	<!ENTITY ns_graphs "http://ns.adobe.com/Graphs/1.0/">
	<!ENTITY ns_vars "http://ns.adobe.com/Variables/1.0/">
	<!ENTITY ns_imrep "http://ns.adobe.com/ImageReplacement/1.0/">
	<!ENTITY ns_sfw "http://ns.adobe.com/SaveForWeb/1.0/">
	<!ENTITY ns_custom "http://ns.adobe.com/GenericCustomNamespace/1.0/">
	<!ENTITY ns_adobe_xpath "http://ns.adobe.com/XPath/1.0/">
]>
<svg version="1.1" id="圖層_1" xmlns:x="&ns_extend;" xmlns:i="&ns_ai;" xmlns:graph="&ns_graphs;"
	 xmlns="http://www.w3.org/2000/svg" xmlns:xlink="http://www.w3.org/1999/xlink" x="0px" y="0px" viewBox="0 0 334.5 84.4"
	 style="enable-background:new 0 0 334.5 84.4;" xml:space="preserve">
<style type="text/css">
	.st0{fill:#FFFFFF;}
	.st1{fill:#E60012;}
</style>
<metadata>
	<sfw  xmlns="&ns_sfw;">
		<slices></slices>
		<sliceSourceBounds  bottomLeftOrigin="true" height="84.4" width="334.5" x="253.7" y="38.9"></sliceSourceBounds>
	</sfw>
</metadata>
<g>
	<rect x="33.6" y="57.3" class="st0" width="11.2" height="22.8"/>
	<rect x="113.2" y="57.3" class="st0" width="11.6" height="22.8"/>
	<rect x="73.4" y="57.3" class="st0" width="11.3" height="22.8"/>
	<path class="st1" d="M121.1,10.9c0,0-1.5,0.4-1.5,0.9c0,0.5,0,11.4,0,11.4s-0.2,0.2,0.6,0.2c0.8,0,5.8-0.2,7.3,4.4
		c0.5,5.4,0.3,5.4,0.3,5.4v51.2h22V0h-13.1C136.8,0,130.3,7.8,121.1,10.9z"/>
	<path class="st1" d="M81.5,10.9c0,0-1.5,0.4-1.5,0.9c0,0.5,0,11.4,0,11.4s-0.2,0.2,0.6,0.2c0.8,0,5.9-0.2,7.3,4.4
		c0.5,5.4,0.3,5.4,0.3,5.4v51.2h22V0H97.2C97.2,0,90.8,7.8,81.5,10.9z"/>
	<path class="st1" d="M41.3,10.9c0,0-1.5,0.4-1.5,0.9c0,0.5,0,11.4,0,11.4s-0.2,0.2,0.6,0.2c0.8,0,5.8-0.2,7.3,4.4
		c0.5,5.4,0.3,5.4,0.3,5.4v51.2h22V0H57.1C57.1,0,50.6,7.8,41.3,10.9z"/>
	<path class="st1" d="M1.5,10.9c0,0-1.5,0.4-1.5,0.9c0,0.5,0,11.4,0,11.4s-0.2,0.2,0.6,0.2c0.8,0,5.8-0.2,7.3,4.4
		c0.5,5.4,0.3,5.4,0.3,5.4v51.2h22V0H17.2C17.2,0,10.8,7.8,1.5,10.9z"/>
	<g>
		<path class="st0" d="M278.7,66.9c-0.8,0-1.4,0.2-2,0.7c-0.8,0.6-1.1,1.6-1.1,3c0,1.4,0.4,2.4,1.1,3c0.5,0.4,1.2,0.7,2,0.7
			c1.1,0,2-0.4,2.5-1.3c0.4-0.7,0.6-1.5,0.6-2.4c0-1.2-0.3-2.1-1-2.8C280.3,67.2,279.6,66.9,278.7,66.9z"/>
		<path class="st0" d="M153.4,57.3v22.8h181V57.3H153.4z M174.4,75.3h-1.8l-1.7-5.7c0,0-0.1-0.5-0.4-1.4c0-0.1,0-0.2,0-0.2h0
			l-2.1,7.4h-1.9l-3.2-9.6h1.8l1.8,6c0.1,0.1,0.2,0.7,0.5,1.6c0,0,0.1-0.5,0.4-1.5l0.1-0.5l1.7-5.6h1.8l1.6,5.5
			c0.1,0.2,0.1,0.4,0.2,0.7c0.1,0.5,0.2,0.9,0.3,1.2h0c0.1-0.3,0.2-0.7,0.4-1.1c0.1-0.2,0.1-0.5,0.2-0.8l1.8-5.5h1.7L174.4,75.3z
			 M188.9,75.3H187l-1.7-5.7c0,0-0.1-0.5-0.4-1.4c0-0.1,0-0.2,0-0.2h0l-2.1,7.4H181l-3.2-9.6h1.8l1.8,6c0.1,0.1,0.2,0.7,0.5,1.6
			c0,0,0.1-0.5,0.4-1.5l0.1-0.5l1.7-5.6h1.8l1.6,5.5c0.1,0.2,0.1,0.4,0.2,0.7c0.1,0.5,0.2,0.9,0.3,1.2h0c0.1-0.3,0.2-0.7,0.4-1.1
			c0.1-0.2,0.1-0.5,0.2-0.8l1.8-5.5h1.7L188.9,75.3z M203.4,75.3h-1.8l-1.7-5.7c0,0-0.1-0.5-0.4-1.4c0-0.1,0-0.2,0-0.2h0l-2.1,7.4
			h-1.9l-3.2-9.6h1.8l1.8,6c0.1,0.1,0.2,0.7,0.5,1.6c0,0,0.1-0.5,0.4-1.5l0.1-0.5l1.7-5.6h1.8l1.6,5.5c0.1,0.2,0.1,0.4,0.2,0.7
			c0.1,0.5,0.2,0.9,0.3,1.2h0c0.1-0.3,0.2-0.7,0.4-1.1c0.1-0.2,0.1-0.5,0.2-0.8l1.8-5.5h1.7L203.4,75.3z M210.5,75.3h-2v-1.9h2V75.3
			z M220,75.3h-1.8V65c-0.9,0.8-2.1,1.5-3.6,2v-1.6c2.1-0.9,3.5-2,4.2-3.3h1.2V75.3z M231.2,75.3h-1.8V65c-0.9,0.8-2.1,1.5-3.6,2
			v-1.6c2.1-0.9,3.5-2,4.2-3.3h1.1V75.3z M242.4,75.3h-1.8V65c-0.9,0.8-2.1,1.5-3.6,2v-1.6c2.1-0.9,3.5-2,4.2-3.3h1.1V75.3z
			 M253.6,75.3h-1.8V65c-0.9,0.8-2.1,1.5-3.6,2v-1.6c2.1-0.9,3.5-2,4.2-3.3h1.1V75.3z M261.1,75.3h-2v-1.9h2V75.3z M270.8,75
			c-0.7,0.4-1.5,0.6-2.3,0.6c-1.6,0-2.9-0.5-3.7-1.5c-0.7-0.9-1.1-2-1.1-3.5c0-1.8,0.5-3.1,1.6-4c0.8-0.7,1.9-1,3.2-1
			c1.6,0,2.8,0.5,3.5,1.5c0.3,0.4,0.5,0.9,0.7,1.5l-1.7,0.2c-0.3-1.3-1.1-1.9-2.4-1.9c-2,0-3.1,1.2-3.1,3.6c0,2.5,1,3.7,3,3.7
			c1.5,0,2.4-0.8,2.6-2.4l1.8,0.2C272.7,73.4,272,74.4,270.8,75z M282.6,73.9c-1,1.1-2.3,1.6-3.9,1.6c-1.6,0-2.9-0.5-3.9-1.6
			c-0.7-0.8-1-1.9-1-3.4c0-1.4,0.4-2.6,1.1-3.4c0.9-1.1,2.2-1.6,3.9-1.6c1.3,0,2.4,0.3,3.3,1c1.1,0.9,1.6,2.1,1.6,3.8
			C283.7,72,283.3,73.1,282.6,73.9z M299.9,75.3h-1.8v-6c0-0.7-0.1-1.2-0.2-1.5c-0.3-0.6-0.8-0.8-1.6-0.8c-1,0-1.7,0.3-2.1,1
			c-0.3,0.5-0.5,1.1-0.5,1.8v5.6h-1.8v-6.2c0-0.6-0.1-1.1-0.3-1.4c-0.3-0.5-0.8-0.7-1.6-0.7c-0.5,0-0.9,0.1-1.3,0.3
			c-0.4,0.2-0.7,0.5-0.9,0.8c-0.3,0.6-0.4,1.4-0.4,2.3v5h-1.8v-9.6h1.6v1.3h0.1c0.7-1,1.7-1.5,3.1-1.5c1.6,0,2.6,0.6,3,1.7
			c0.8-1.1,1.9-1.7,3.2-1.7c2.2,0,3.2,1.1,3.2,3.2V75.3z M304.8,75.3h-2v-1.9h2V75.3z M310.8,75.5c-1.1,0-1.8-0.3-2.2-0.9
			c-0.2-0.4-0.3-1.1-0.3-2.1V67H307v-1.3h1.3v-2.4l1.8-1v3.3h1.8V67h-1.8v5.6c0,0.5,0,0.8,0.1,1c0.1,0.3,0.4,0.4,0.9,0.4
			c0.3,0,0.5,0,0.8-0.1l0.2,1.4C311.6,75.4,311.2,75.5,310.8,75.5z M323.7,75.3h-1.8l-1.7-5.7c0,0-0.1-0.5-0.4-1.4
			c0-0.1,0-0.2,0-0.2h0l-2.1,7.4h-1.9l-3.2-9.6h1.8l1.8,6c0.1,0.1,0.2,0.7,0.5,1.6c0,0,0.1-0.5,0.4-1.5l0.1-0.5l1.7-5.6h1.8l1.6,5.5
			c0.1,0.2,0.1,0.4,0.2,0.7c0.1,0.5,0.2,0.9,0.3,1.2h0c0.1-0.3,0.2-0.7,0.4-1.1c0.1-0.2,0.1-0.5,0.2-0.8l1.8-5.5h1.7L323.7,75.3z"/>
	</g>
	<g>
		<path class="st0" d="M184.8,14c0,1.6-0.1,3.8-0.3,6.4c0.6,5.3,3.2,22.4,18.1,29c-1.2,0.9-2.4,2.3-2.9,3.4
			c-10-4.7-14.7-14.1-17-21.8c-2.1,8-6.7,16.7-16.3,22c-0.7-1-2-2.3-3.3-3.2c17.5-9.1,17-29,17.1-35.8H184.8z"/>
		<path class="st0" d="M241.8,22.9c0,0,0,1.4-0.1,2c-0.9,17.3-1.8,23.6-3.6,25.8c-1.2,1.4-2.3,1.8-3.9,2c-1.5,0.2-4.3,0.1-6.8,0
			c-0.1-1.2-0.6-2.9-1.4-4.1c2.8,0.3,5.4,0.3,6.5,0.3c0.9,0,1.5-0.1,2-0.6c1.5-1.4,2.4-7.2,3.1-21.2h-13.4
			c-0.6,8.8-3.5,19.2-15.7,26.3c-0.6-1-2.1-2.5-3.1-3.2c11.1-6.4,13.9-15.4,14.5-23.1h-13.3v-4.1h13.5v-1.1V14h4.2v7.9v1.1H241.8z"
			/>
		<path class="st0" d="M263,44.8l0.3,3.3c-5.4,1.3-11.2,2.8-15.6,3.8l-1-3.8c1.9-0.3,4.2-0.8,6.8-1.3V35.5h-6.2V32h6.2v-4h-4v-1.9
			c-0.6,0.5-1.2,1-1.8,1.4c-0.3-0.8-1.2-2.9-1.7-3.8c3.4-2.3,7-6,9.1-9.8l3.3,1.2c-0.3,0.4-0.5,0.9-0.8,1.4c2.5,1.9,5.1,4.2,6.6,5.9
			l-2.4,2.8c-1.5-1.6-3.9-3.9-6.1-5.8c-1.4,1.9-3,3.7-4.6,5.3h9.9V28h-4.1v4h5.8v3.5h-5.8v10.6L263,44.8z M251,37.3
			c0.8,2.4,1.6,5.6,1.8,7.7l-2.9,0.8c-0.2-2.1-0.9-5.3-1.7-7.8L251,37.3z M257.8,44.2c0.6-2.1,1.5-5.3,1.8-7.5l3,0.9
			c-0.8,2.5-1.7,5.5-2.5,7.4L257.8,44.2z M285.4,38.4c-1.9,1.5-4.2,3.2-6.2,4.4c1.8,2.8,4.1,5,6.9,6.4c-0.9,0.8-2.1,2.3-2.7,3.4
			c-5.8-3.4-9.2-10-11.2-18h-3v12.9l6.4-1.8c0,1.1,0.2,2.6,0.3,3.5c-8.7,2.7-10.1,3.2-10.9,3.9c-0.2-0.9-0.8-2.6-1.4-3.4
			c0.8-0.3,1.7-1,1.7-2.6V15.7h18.6v18.9h-8.3c0.6,1.8,1.2,3.6,2,5.3c1.8-1.3,3.9-2.9,5.3-4.3L285.4,38.4z M269.1,19.1v4.4H280v-4.4
			H269.1z M269.1,31.2H280v-4.4h-10.9V31.2z"/>
		<path class="st0" d="M303.1,24.4c-1.3,2.2-2.9,4.4-4.7,6.5v22.3h-4V35.3c-1.4,1.4-2.9,2.7-4.2,3.8c-0.5-0.9-1.9-2.6-2.7-3.4
			c4.4-3.1,9-8,11.8-12.8L303.1,24.4z M301.4,15.4c-2.9,3.8-7.4,8-11.3,10.8c-0.5-0.9-1.5-2.4-2.3-3.2c3.5-2.3,7.7-6.1,9.7-9.2
			L301.4,15.4z M327.1,31.8h-6.2v16.5c0,2.3-0.5,3.4-2.1,4.1c-1.6,0.6-4.1,0.6-8.1,0.6c-0.2-1.2-0.7-2.8-1.3-4
			c2.7,0.1,5.6,0.1,6.4,0c0.8,0,1.1-0.2,1.1-0.8V31.8h-13.5V28h23.7V31.8z M325.9,20.2h-20.7v-3.8h20.7V20.2z"/>
	</g>
</g>
</svg>
