<?xml version="1.0" encoding="utf-8"?>
<!-- Generator: Adobe Illustrator 26.0.3, SVG Export Plug-In . SVG Version: 6.00 Build 0)  -->
<!DOCTYPE svg PUBLIC "-//W3C//DTD SVG 1.1//EN" "http://www.w3.org/Graphics/SVG/1.1/DTD/svg11.dtd" [
	<!ENTITY ns_extend "http://ns.adobe.com/Extensibility/1.0/">
	<!ENTITY ns_ai "http://ns.adobe.com/AdobeIllustrator/10.0/">
	<!ENTITY ns_graphs "http://ns.adobe.com/Graphs/1.0/">
	<!ENTITY ns_vars "http://ns.adobe.com/Variables/1.0/">
	<!ENTITY ns_imrep "http://ns.adobe.com/ImageReplacement/1.0/">
	<!ENTITY ns_sfw "http://ns.adobe.com/SaveForWeb/1.0/">
	<!ENTITY ns_custom "http://ns.adobe.com/GenericCustomNamespace/1.0/">
	<!ENTITY ns_adobe_xpath "http://ns.adobe.com/XPath/1.0/">
]>
<svg version="1.1" id="圖層_1" xmlns:x="&ns_extend;" xmlns:i="&ns_ai;" xmlns:graph="&ns_graphs;"
	 xmlns="http://www.w3.org/2000/svg" xmlns:xlink="http://www.w3.org/1999/xlink" x="0px" y="0px" viewBox="0 0 58 58"
	 style="enable-background:new 0 0 58 58;" xml:space="preserve">
<style type="text/css">
	.st0{fill:url(#SVGID_1_);}
</style>
<metadata>
	<sfw  xmlns="&ns_sfw;">
		<slices></slices>
		<sliceSourceBounds  bottomLeftOrigin="true" height="57.3" width="50" x="-13" y="-33.7"></sliceSourceBounds>
	</sfw>
</metadata>
<linearGradient id="SVGID_1_" gradientUnits="userSpaceOnUse" x1="4" y1="29" x2="54" y2="29">
	<stop  offset="0" style="stop-color:#03AFF0"/>
	<stop  offset="1" style="stop-color:#9438CC"/>
</linearGradient>
<path class="st0" d="M24.7,57.7C12.8,55.6,4,45.2,4,33c0-6.3,2.3-12.3,6.6-16.9l3.1,3.1c-3.4,3.8-5.3,8.6-5.3,13.8
	c0,9.8,6.8,18.1,16.3,20.1V57.7z M33.3,53.2c9.5-2,16.3-10.3,16.3-20.1c0-11.3-9.2-20.6-20.6-20.6c-0.1,0-0.2,0-0.3,0
	c-0.1,0-0.1,0-0.2,0h-2.5l4.6,4.6l-3.1,3.1l-9.9-9.9l9.9-9.9l3.1,3.1l-4.6,4.6h2.5c0.1,0,0.3,0,0.4,0c0.1,0,0.1,0,0.2,0
	c13.8,0,25,11.2,25,25c0,12.2-8.8,22.6-20.7,24.6V53.2z"/>
</svg>
