<?xml version="1.0" encoding="utf-8"?>
<!-- Generator: Adobe Illustrator 25.2.1, SVG Export Plug-In . SVG Version: 6.00 Build 0)  -->
<svg version="1.1" id="圖層_1" xmlns="http://www.w3.org/2000/svg" xmlns:xlink="http://www.w3.org/1999/xlink" x="0px" y="0px"
	 viewBox="0 0 125.9 24.2" style="enable-background:new 0 0 125.9 24.2;" xml:space="preserve">
<style type="text/css">
	.st0{fill:#FF0000;}
</style>
<g id="logo_1_l" transform="translate(0 -2)">
	<g id="Group_28" transform="translate(-844.278 -901.706)">
		<path id="Path_1993" class="st0" d="M878.5,906.8c0,0-0.5,0.1-0.4,0.3s0,3.3,0,3.3s-0.1,0.1,0.2,0.1c0.9-0.1,1.8,0.4,2.2,1.3
			c0.1,0.5,0.1,1,0.1,1.5V928h6.7v-24.2h-3.9C881.9,905.1,880.3,906.2,878.5,906.8z"/>
		<path id="Path_1994" class="st0" d="M867.2,906.8c0,0-0.5,0.1-0.4,0.3s0,3.3,0,3.3s-0.1,0.1,0.2,0.1c0.9-0.1,1.8,0.4,2.2,1.3
			c0.1,0.5,0.1,1,0.1,1.5V928h6.7v-24.2h-4C870.7,905.1,869,906.2,867.2,906.8z"/>
		<path id="Path_1995" class="st0" d="M856,906.8c0,0-0.4,0.1-0.4,0.3s0,3.3,0,3.3s-0.1,0.1,0.2,0.1c0.9-0.1,1.8,0.4,2.2,1.3
			c0.1,0.5,0.1,1,0.1,1.5V928h6.7v-24.2h-4C859.4,905.1,857.8,906.2,856,906.8z"/>
		<path id="Path_1996" class="st0" d="M844.7,906.8c0,0-0.4,0.1-0.4,0.3s0,3.3,0,3.3s-0.1,0.1,0.2,0.1c0.9-0.1,1.8,0.4,2.2,1.3
			c0.1,0.5,0.1,1,0.1,1.5V928h6.7v-24.2h-4C848.2,905.1,846.5,906.2,844.7,906.8z"/>
	</g>
	<path id="Path_5544" d="M59.5,6.2c-0.1,2.9,0.1,12.1-7.8,16.1c0.4,0.3,0.8,0.7,1.1,1.1c4.6-2.5,6.6-6.7,7.5-10.5
		c0.9,3.5,2.9,8.2,7.7,10.4c0.3-0.5,0.6-0.9,1-1.2c-6.7-3-7.8-10.9-8.1-13.2c0.1-1.1,0.1-2.1,0.1-2.8L59.5,6.2z M79.1,10.2V6.1h-1.5
		v4.1h-6.2v1.4h6.1c-0.2,4.5-2.7,8.6-6.6,10.8c0.4,0.3,0.8,0.7,1.1,1.1c4.3-2.4,6.9-7,7-11.9h6.5c-0.4,6.7-0.8,9.4-1.5,10
		c-0.2,0.2-0.6,0.3-0.9,0.3c-0.5,0-1.7,0-3-0.1c0.3,0.4,0.4,0.9,0.5,1.4c1,0.1,2,0.1,3,0.1c0.6,0,1.2-0.3,1.6-0.8
		c0.8-1,1.2-3.8,1.7-11.6c0-0.2,0-0.7,0-0.7L79.1,10.2z M94.2,20.6v-5.2h2.6v-1.3h-2.6v-2.1h2v-1.2h-4.8c0.9-0.8,1.6-1.7,2.3-2.6
		c1,0.8,2,1.7,2.8,2.6l0.9-1c-1-0.9-2-1.8-3-2.7c0.2-0.2,0.3-0.5,0.4-0.7l-1.2-0.4c-1,1.8-2.4,3.3-4.1,4.4c0.3,0.4,0.5,0.9,0.6,1.3
		c0.3-0.2,0.6-0.4,0.9-0.7v0.9h1.9v2.1H90v1.3h2.9v5.4c-1.2,0.2-2.3,0.5-3.1,0.6l0.4,1.3c1.9-0.4,4.4-1,6.8-1.6L96.9,20L94.2,20.6z
		 M90.5,16.7c0.4,1.2,0.6,2.3,0.8,3.6l1-0.3c-0.2-1.2-0.5-2.4-0.8-3.5L90.5,16.7z M95.5,19.9c0.4-0.9,0.8-2.3,1.1-3.4l-1.1-0.3
		c-0.2,1.2-0.5,2.3-0.9,3.5L95.5,19.9z M99.4,11.6h5.3V14h-5.3V11.6z M104.7,8.2v2.3h-5.3V8.2H104.7z M105.9,15.8
		c-0.8,0.8-1.7,1.5-2.6,2.1c-0.4-0.9-0.8-1.8-1-2.7h3.9V7H98v14.2c0,0.5-0.3,1-0.8,1.1c0.2,0.4,0.4,0.8,0.5,1.2
		c0.4-0.3,0.9-0.5,4.9-1.7c-0.1-0.4-0.1-0.8-0.1-1.3l-3.2,0.9v-6.2h1.6c0.9,3.6,2.6,6.5,5.2,8c0.3-0.4,0.6-0.8,1-1.2
		c-1.4-0.7-2.5-1.8-3.3-3.1c1.1-0.6,2.1-1.3,3-2.1L105.9,15.8z M125.4,7.3h-9.3v1.3h9.3L125.4,7.3z M112.9,6.1
		c-1.2,1.6-2.7,3-4.4,4.1c0.3,0.4,0.6,0.7,0.8,1.1c1.8-1.3,3.5-2.9,4.9-4.7L112.9,6.1z M113.7,10.1c-1.4,2.2-3.2,4.2-5.3,5.7
		c0.4,0.4,0.7,0.8,1,1.2c0.8-0.6,1.5-1.3,2.1-2v8.4h1.4v-10c0.8-0.9,1.5-1.9,2.1-2.9L113.7,10.1z M125.9,12.4h-10.6v1.3h6.3v7.8
		c0,0.3-0.1,0.4-0.5,0.4c-0.4,0-1.6,0-3,0c0.2,0.4,0.4,0.9,0.5,1.4c1.2,0.1,2.4,0,3.6-0.2c0.6-0.2,0.8-0.7,0.8-1.5v-7.8h2.9
		L125.9,12.4z"/>
</g>
</svg>
