<?xml version="1.0" encoding="utf-8"?>
<!-- Generator: Adobe Illustrator 26.0.3, SVG Export Plug-In . SVG Version: 6.00 Build 0)  -->
<!DOCTYPE svg PUBLIC "-//W3C//DTD SVG 1.1//EN" "http://www.w3.org/Graphics/SVG/1.1/DTD/svg11.dtd" [
	<!ENTITY ns_extend "http://ns.adobe.com/Extensibility/1.0/">
	<!ENTITY ns_ai "http://ns.adobe.com/AdobeIllustrator/10.0/">
	<!ENTITY ns_graphs "http://ns.adobe.com/Graphs/1.0/">
	<!ENTITY ns_vars "http://ns.adobe.com/Variables/1.0/">
	<!ENTITY ns_imrep "http://ns.adobe.com/ImageReplacement/1.0/">
	<!ENTITY ns_sfw "http://ns.adobe.com/SaveForWeb/1.0/">
	<!ENTITY ns_custom "http://ns.adobe.com/GenericCustomNamespace/1.0/">
	<!ENTITY ns_adobe_xpath "http://ns.adobe.com/XPath/1.0/">
]>
<svg version="1.1" id="圖層_1" xmlns:x="&ns_extend;" xmlns:i="&ns_ai;" xmlns:graph="&ns_graphs;"
	 xmlns="http://www.w3.org/2000/svg" xmlns:xlink="http://www.w3.org/1999/xlink" x="0px" y="0px" viewBox="0 0 43 24.2"
	 style="enable-background:new 0 0 43 24.2;" xml:space="preserve">
<style type="text/css">
	.st0{fill:#FF0000;}
</style>
<metadata>
	<sfw  xmlns="&ns_sfw;">
		<slices></slices>
		<sliceSourceBounds  bottomLeftOrigin="true" height="24.2" width="43" x="0" y="-0.1"></sliceSourceBounds>
	</sfw>
</metadata>
<g id="Group_28" transform="translate(-844.278 -901.706)">
	<path id="Path_1993" class="st0" d="M878.5,904.8c0,0-0.5,0.1-0.4,0.3s0,3.3,0,3.3s-0.1,0.1,0.2,0.1c0.9-0.1,1.8,0.4,2.2,1.3
		c0.1,0.5,0.1,1,0.1,1.5V926h6.7v-24.2h-3.9C881.9,903.1,880.3,904.2,878.5,904.8z"/>
	<path id="Path_1994" class="st0" d="M867.2,904.8c0,0-0.5,0.1-0.4,0.3s0,3.3,0,3.3s-0.1,0.1,0.2,0.1c0.9-0.1,1.8,0.4,2.2,1.3
		c0.1,0.5,0.1,1,0.1,1.5V926h6.7v-24.2h-4C870.7,903.1,869,904.2,867.2,904.8z"/>
	<path id="Path_1995" class="st0" d="M856,904.8c0,0-0.4,0.1-0.4,0.3s0,3.3,0,3.3s-0.1,0.1,0.2,0.1c0.9-0.1,1.8,0.4,2.2,1.3
		c0.1,0.5,0.1,1,0.1,1.5V926h6.7v-24.2h-4C859.4,903.1,857.8,904.2,856,904.8z"/>
	<path id="Path_1996" class="st0" d="M844.7,904.8c0,0-0.4,0.1-0.4,0.3s0,3.3,0,3.3s-0.1,0.1,0.2,0.1c0.9-0.1,1.8,0.4,2.2,1.3
		c0.1,0.5,0.1,1,0.1,1.5V926h6.7v-24.2h-4C848.2,903.1,846.5,904.2,844.7,904.8z"/>
</g>
</svg>
